<?xml version="1.0" encoding="utf-8"?>
<!-- Generator: Adobe Illustrator 25.0.1, SVG Export Plug-In . SVG Version: 6.00 Build 0)  -->
<svg version="1.1" id="katman_1" xmlns="http://www.w3.org/2000/svg" xmlns:xlink="http://www.w3.org/1999/xlink" x="0px" y="0px"
	 viewBox="0 0 560 400" style="enable-background:new 0 0 560 400;" xml:space="preserve">
<style type="text/css">
	.st0{fill:#61849C;}
	.st1{fill:#231F20;}
</style>
<g transform="matrix(.931588 0 0 .931588 94.0322 60.3549)">
	<path class="st0" d="M212.1,186.4h2.4v23.3h-2.3l-14.4-19.8v19.8h-2.4v-23.3h2.7l13.9,19.2L212.1,186.4z M222.9,198.7h12.6v-2.3
		h-12.6v-7.7h12.9v-2.4h-15.4v23.3h15.5v-2.3h-13V198.7z M239.5,188.7h8.7v20.9h2.5v-20.9h8.7v-2.4h-20L239.5,188.7z M285.8,205.6
		l-6.2-19.3h-2.1l-6.3,19.3l-6.1-19.3h-2.5l7.5,23.5h2.2l6.3-19.4l6.3,19.4h2.1l7.5-23.5H292L285.8,205.6z M320.1,198
		c0,8.3-4.3,12-11.8,12c-7.4,0-11.7-3.7-11.7-12c0-8.3,4.2-12,11.7-12C315.8,186,320.1,189.7,320.1,198z M317.6,198
		c0-6.3-2.9-9.7-9.3-9.7c-6.3,0-9.2,3.4-9.2,9.7c0,6.3,2.9,9.7,9.2,9.7C314.6,207.7,317.6,204.3,317.6,198z M337.1,200.1l5.6,9.6
		H340l-5.5-9.5h-7v9.5h-2.4v-23.3h10.1c5.4,0,7.9,2.2,7.9,6.8C343,197.2,341.1,199.5,337.1,200.1L337.1,200.1z M340.5,193.2
		c0-3.6-2-4.6-5.4-4.6h-7.6v9.2h7.7C338.5,197.9,340.5,196.9,340.5,193.2z M365.4,186.4h-2.9l-11.8,12.9v-12.9h-2.4v23.3h2.4v-7.3
		l4.7-5.1l8.3,12.4h2.8l-9.5-14.1L365.4,186.4z M378.8,196.4c-4.2-0.8-6.6-1.3-6.6-4.3c0-2.8,1.8-3.9,6-3.9c2.6,0,5.1,0.7,6.8,1.8
		l1.3-2c-1.9-1.3-4.5-2.1-8.1-2.1c-5.5,0-8.4,1.8-8.4,6.3c0,4.7,3.4,5.6,8.4,6.4c4.2,0.8,6.9,1.2,6.9,4.5c0,3.2-2.1,4.6-6.9,4.6
		c-2.8,0-5.5-0.6-8.3-2.4l-1.3,1.9c3,1.9,6.1,2.7,9.7,2.7c6.4,0,9.3-2.2,9.3-6.9C387.5,198.1,383.9,197.4,378.8,196.4L378.8,196.4z"
		/>
	<path class="st1" d="M419.7,90.4v7.4c-2.3-0.3-4.9-0.4-7.8-0.4c-27,0-26.4,12.5-26.4,28.1v50.8h-7.7v-50.8
		c0-20.7,1.4-35.4,34.1-35.4C414.7,90.1,417.3,90.2,419.7,90.4L419.7,90.4z M91.3,142.6c0,15.6,0.6,28.1-26.4,28.1
		c-27.2,0-27-12.5-27-27.3V91.8h-7.9v51.4c0,20.1,2,34.8,34.9,34.8c32.7,0,34.1-14.7,34.1-35.4V91.8h-7.7V142.6z M146.2,90.1
		c-32.7,0-34.1,14.7-34.1,35.4v50.8h7.7v-50.8c0-15.6-0.6-28.1,26.4-28.1c27.2,0,27,12.5,27,27.3v51.6h7.9v-51.4
		C181.1,104.8,179.1,90.1,146.2,90.1L146.2,90.1z M195.4,176.3h7.6V91.9h-7.6V176.3z M285.1,119c0,17.4-8.8,28-28.6,28h-31.8v29.3
		h-7.6V91.9h39.5C276.2,91.9,285.1,101.7,285.1,119z M277.2,119.3c0-13.4-7.3-19.8-20.8-19.8h-31.7v39.9h32
		C270.4,139.4,277.2,132.7,277.2,119.3z M366.7,135.2h-65.2c0.2,20.5,5.2,35.8,32,35.8c14.2,0,20.7-3.9,27.7-9l4.3,5.7
		c-7.7,5.7-16.8,10.2-32,10.2c-33.4,0-39.5-19.3-39.5-44.2s7.1-44,38.9-44C365.7,89.8,366.8,111.9,366.7,135.2L366.7,135.2z
		 M359.1,128.1c-0.8-16.8-1.9-31.2-26.4-31.2c-23.6,0-30.1,12.8-31,31.2H359.1z M8.9,159.2c0,15.6,0.6,28.1-26.4,28.1
		c-1,0-2,0-2.9-0.1v7.3c0.9,0,1.9,0,2.9,0c32.7,0,34.1-14.7,34.1-35.4V91.8H8.9L8.9,159.2z"/>
</g>
</svg>
