<?xml version="1.0" encoding="utf-8"?>
<!-- Generator: Adobe Illustrator 26.0.3, SVG Export Plug-In . SVG Version: 6.00 Build 0)  -->
<svg version="1.0" id="katman_1" xmlns="http://www.w3.org/2000/svg" xmlns:xlink="http://www.w3.org/1999/xlink" x="0px" y="0px"
	 viewBox="0 0 600 450" style="enable-background:new 0 0 600 450;" xml:space="preserve">
<style type="text/css">
	.st0{fill:#3858A4;}
	.st1{fill:#010202;}
</style>
<g>
	<g>
		<path class="st0" d="M210.6,205.3l-1.7-9.9c-0.5-3.2-1.7-5.8-2.7-5.8s-1.8,2.7-1.8,5.8v2.6c0,3.2-2.7,5.8-5.8,5.8H196
			c-0.2,0-0.4,0-0.5,0v7.1c0.2,0,0.4,0,0.5,0h9.7C208.9,211.1,211.1,208.5,210.6,205.3"/>
		<path class="st0" d="M187.3,197h-15.8c-0.2,0-0.2,0-0.4,0h-16.2c-0.2,0-0.4,0-0.5,0.1v-1.5c0-3.2-0.8-5.8-1.8-5.8
			s-2.2,2.6-2.7,5.8l-1.7,9.9c-0.5,3.2,1.7,5.8,4.9,5.8h9.7c1,0,2-0.2,2.7-0.5c-0.3,1.7-1.7,2.9-3.5,2.9h-13.7c-2.2,0-3.9-2-3.5-4.2
			l1.4-8.3c0.4-2.2-1.3-4.2-3.5-4.2H75c-1.4,0-2.7,0.8-3.3,2.1l-12.8,19.5c-0.2,0.3-0.2,0.8,0.1,1.1l2.5,3c0.3,0.4,0.8,0.5,1.2,0.2
			l8.7-6.8v41.6c0,2,1.6,3.6,3.6,3.6h19.3c2,0,3.6-1.6,3.6-3.6v-14.4c0-2,1.6-3.6,3.6-3.6h48.1c2,0,3.6,1.6,3.6,3.6v14.4
			c0,2,1.6,3.6,3.6,3.6h19.3c2,0,3.6-1.6,3.6-3.6v-15.7h-10.3c-3.2,0-5.8-2.7-5.8-5.8v-10c0-1.9,0.9-3.6,2.4-4.6v11.9
			c0,3.2,2.7,5.8,5.8,5.8h15.7c3.2,0,5.8-2.7,5.8-5.8v-30.4C193.1,199.6,190.5,197,187.3,197"/>
	</g>
	<g>
		<g>
			<path class="st1" d="M223.5,198.9h21.7c10.3,0,17.2,5,17.2,14.7c0,7.9-5.4,12.6-10.6,14.3c1.6,1.3,2.7,3.1,3.6,5
				c2.2,4.5,3.6,9.3,8.3,9.3c1.1,0,2.1-0.4,2.1-0.4l-1.1,9.3c0,0-2.8,0.7-5.2,0.7c-6.2,0-9.8-2.4-13.5-10.8
				c-1.6-3.7-3.7-10.3-6.6-10.3h-3v20.8h-13.1L223.5,198.9L223.5,198.9z M236.6,208.4v12.9h4.7c3.7,0,8.1-1.1,8.1-6.8
				c0-4.6-3-6.2-6.5-6.2C242.9,208.4,236.6,208.4,236.6,208.4z"/>
			<path class="st1" d="M280.1,198.9h13.2l17.8,52.6h-13.2l-3.3-10H277l-3.2,10h-11.4L280.1,198.9z M280.1,232h11.3l-3.6-11.1
				c-1.2-3.7-1.8-9-1.8-9h-0.3c0,0-0.8,5.4-2,9L280.1,232z"/>
			<path class="st1" d="M311.6,198.9h14l13.8,26.1c1.1,2.3,2.7,6.2,3.9,9.3h0.3c-0.2-3-0.5-7.1-0.5-10.3v-25.2h10.7v52.6h-13.7
				l-14.4-26.1c-1.3-2.4-2.7-5.8-3.8-8.6h-0.3c0.2,3,0.6,6.5,0.6,9.3v25.3h-10.7V198.9z"/>
			<path class="st1" d="M356.6,225c0-19.1,9.4-26.9,24-26.9c15.3,0,21.5,8.4,19.8,19.8l-12.2,1.1c1.3-8.4-2-11.7-7.9-11.7
				c-5.7,0-10.3,4.2-10.3,17.8c0,14.4,5,18,10.7,18c5.4,0,9.7-3.3,8.8-10.3L401,234c0.8,10.7-6.8,18.5-20.9,18.5
				C365.8,252.6,356.6,244.1,356.6,225"/>
			<polygon class="st1" points="403.6,198.9 416.7,198.9 416.7,218.8 432.6,218.8 432.6,198.9 445.7,198.9 445.7,251.7 432.6,251.7 
				432.6,229.3 416.7,229.3 416.7,251.7 403.6,251.7 			"/>
			<polygon class="st1" points="451,198.9 485.8,198.9 485.8,208.7 463.9,208.7 463.9,220 482.2,220 482.2,229.6 463.9,229.6 
				463.9,241.9 486.6,241.9 486.6,251.7 451,251.7 			"/>
			<path class="st1" d="M489.1,198.9h21.7c10.3,0,17.2,5,17.2,14.7c0,7.9-5.4,12.6-10.6,14.3c1.6,1.3,2.7,3.1,3.6,5
				c2.2,4.5,3.6,9.3,8.3,9.3c1.1,0,2.1-0.4,2.1-0.4l-1.1,9.3c0,0-2.8,0.7-5.2,0.7c-6.2,0-9.8-2.4-13.5-10.8
				c-1.6-3.7-3.7-10.3-6.6-10.3h-3v20.8H489L489.1,198.9L489.1,198.9z M502.1,208.4v12.9h4.7c3.7,0,8.1-1.1,8.1-6.8
				c0-4.6-3-6.2-6.5-6.2C508.4,208.4,502.1,208.4,502.1,208.4z"/>
		</g>
		<g>
			<path class="st1" d="M533.1,202.3c0-3,2.2-4.3,4.3-4.3c2.1,0,4.3,1.3,4.3,4.3c0,2.9-2.2,4.2-4.3,4.2
				C535.3,206.5,533.1,205.2,533.1,202.3z M540.6,202.3c0-2.4-1.5-3.3-3.2-3.3c-1.7,0-3.3,1-3.3,3.3c0,2.3,1.6,3.3,3.3,3.3
				C539.1,205.6,540.6,204.6,540.6,202.3z M535.9,200.2h1.5c0.8,0,1.5,0.2,1.5,1.3c0,0.6-0.5,1-1,1.1l1,1.7h-0.9l-0.9-1.7h-0.4v1.7
				h-0.8V200.2z M537.5,202.1c0.4,0,0.7-0.2,0.7-0.6c0-0.5-0.4-0.5-0.7-0.5h-0.8v1.1H537.5z"/>
		</g>
	</g>
</g>
</svg>
