<?xml version="1.0" standalone="no"?>
<!DOCTYPE svg PUBLIC "-//W3C//DTD SVG 20010904//EN"
 "http://www.w3.org/TR/2001/REC-SVG-20010904/DTD/svg10.dtd">
<svg version="1.0" xmlns="http://www.w3.org/2000/svg"
 width="540x" height="167x" viewBox="0 0 300.000000 80.000000"
 preserveAspectRatio="xMidYMid meet">
<metadata>
</metadata>
<g transform="translate(0.000000,80.000000) scale(0.100000,-0.100000)"
fill="#000000" stroke="none">
<path d="M387 742 c-23 -26 -22 -69 3 -84 11 -7 20 -22 20 -34 0 -18 -7 -22
-55 -27 -63 -6 -111 -33 -139 -75 -11 -17 -25 -28 -32 -25 -25 9 -84 -19 -106
-50 -25 -34 -33 -136 -16 -194 13 -44 61 -83 103 -83 27 0 37 -6 52 -31 34
-58 75 -73 200 -78 100 -3 117 -1 158 19 26 12 56 37 68 55 17 26 30 34 62 38
29 4 47 14 68 38 25 31 27 40 27 117 0 61 -5 92 -17 113 -20 33 -76 63 -105
56 -13 -4 -22 2 -30 18 -18 41 -83 78 -144 83 -47 4 -54 7 -54 26 0 12 9 27
20 34 25 16 26 63 2 85 -24 22 -65 21 -85 -1z m61 -57 c-14 -32 -26 -32 -34
-1 -8 34 2 49 26 36 17 -9 18 -14 8 -35z m126 -154 c45 -28 46 -41 2 -41 -43
0 -96 -55 -96 -100 0 -29 -1 -30 -50 -30 -44 0 -50 3 -50 20 0 53 -53 110
-102 110 -35 0 -36 13 -1 35 40 27 70 32 169 30 75 -1 98 -6 128 -24z m-259
-106 c22 -21 25 -33 25 -90 0 -60 -3 -69 -29 -96 -26 -26 -36 -29 -94 -29 -50
0 -70 5 -91 21 -24 19 -26 26 -26 100 0 107 12 119 115 119 67 0 79 -3 100
-25z m424 -1 c17 -21 21 -41 21 -96 0 -60 -3 -72 -25 -93 -21 -22 -33 -25 -95
-25 -62 0 -74 3 -95 25 -22 21 -25 33 -25 93 0 55 4 75 21 96 19 24 26 26 99
26 73 0 80 -2 99 -26z m-259 -153 c0 -43 43 -90 91 -97 21 -4 39 -10 39 -14 0
-5 -16 -18 -35 -30 -29 -18 -50 -21 -143 -22 -107 0 -138 7 -170 39 -17 17
-18 16 35 31 44 13 83 60 83 101 0 19 6 21 50 21 49 0 50 -1 50 -29z"/>
<path d="M157 392 c-26 -29 -23 -107 5 -126 47 -33 117 -11 133 42 5 18 2 22
-17 22 -13 0 -28 4 -34 8 -17 11 -36 51 -29 62 11 18 -42 10 -58 -8z m55 -59
c35 -34 35 -43 -1 -43 -29 0 -41 14 -41 51 0 26 9 24 42 -8z"/>
<path d="M576 388 c-21 -29 -20 -92 0 -112 45 -46 144 -22 144 35 0 13 -7 19
-23 19 -29 0 -57 29 -57 58 0 30 -43 30 -64 0z m84 -91 c-4 -5 -18 -7 -31 -5
-19 2 -25 10 -27 37 l-4 34 35 -29 c19 -16 31 -33 27 -37z"/>
<path d="M2182 518 c-18 -18 -15 -36 9 -48 26 -14 51 4 47 34 -3 24 -37 33
-56 14z"/>
<path d="M1810 443 c0 -55 -1 -56 -15 -36 -23 33 -86 47 -127 30 -47 -21 -79
-59 -85 -104 -14 -108 115 -185 196 -117 l31 26 0 -26 c0 -14 4 -26 10 -26 5
0 10 66 12 155 2 119 0 155 -9 155 -9 0 -13 -18 -13 -57z m-51 -37 c51 -27 67
-103 31 -148 -30 -38 -71 -52 -114 -38 -44 14 -66 48 -66 100 0 79 77 123 149
86z"/>
<path d="M2312 465 c3 -29 1 -35 -14 -35 -13 0 -18 -8 -18 -25 0 -17 6 -25 18
-25 15 0 17 -10 17 -71 0 -65 2 -73 28 -95 18 -15 41 -24 63 -24 30 0 34 3 34
25 0 19 -5 25 -23 25 -36 0 -47 19 -47 82 l0 58 35 0 c31 0 35 3 35 25 0 22
-4 25 -35 25 -33 0 -35 2 -35 35 0 32 -2 35 -31 35 -30 0 -31 -2 -27 -35z"/>
<path d="M2713 350 c1 -111 4 -150 13 -150 7 0 19 -3 28 -6 14 -5 16 5 16 74
0 90 12 112 60 112 40 0 50 -23 50 -113 l0 -74 27 1 27 1 -2 90 c-4 112 -19
138 -80 143 -23 2 -50 -2 -62 -8 -19 -10 -20 -8 -20 35 0 43 -1 45 -29 45
l-28 0 0 -150z"/>
<path d="M935 430 c-47 -24 -49 -24 -41 -5 3 9 0 15 -9 15 -12 0 -15 -22 -15
-125 0 -104 2 -125 15 -125 12 0 15 17 15 94 0 90 1 96 26 115 26 21 67 27 99
15 30 -12 45 -60 45 -144 0 -47 4 -80 10 -80 6 0 10 38 10 93 0 105 -11 130
-66 153 -42 18 -42 18 -89 -6z"/>
<path d="M1203 431 c-129 -59 -71 -257 69 -238 41 5 71 24 63 37 -3 5 -23 1
-45 -7 -33 -13 -44 -14 -71 -3 -27 12 -69 61 -69 83 0 4 52 7 115 7 109 0 115
1 115 20 0 30 -25 75 -52 92 -41 27 -80 29 -125 9z m115 -36 c16 -14 32 -34
35 -45 5 -19 0 -20 -99 -20 l-105 0 16 29 c33 64 101 80 153 36z"/>
<path d="M1477 431 c-29 -15 -37 -16 -37 -5 0 8 -7 14 -15 14 -13 0 -15 -21
-15 -125 0 -104 2 -125 15 -125 12 0 15 17 15 90 0 84 2 93 26 117 21 21 32
25 65 20 46 -6 62 9 24 23 -34 13 -35 13 -78 -9z"/>
<path d="M1880 260 l0 -170 30 0 c30 0 30 0 30 60 l0 60 26 -10 c64 -25 135 5
160 67 20 48 11 98 -26 135 -23 23 -37 28 -76 28 -30 0 -54 -6 -66 -17 -17
-15 -18 -15 -18 0 0 12 -9 17 -30 17 l-30 0 0 -170z m184 98 c50 -71 -43 -159
-104 -98 -24 24 -26 77 -3 102 24 27 87 24 107 -4z"/>
<path d="M2180 309 l0 -120 26 3 27 3 1 117 1 118 -27 0 -28 0 0 -121z"/>
<path d="M2502 402 c-79 -74 -37 -198 70 -209 59 -6 114 27 98 58 -6 11 -14
19 -18 17 -4 -2 -20 -10 -35 -18 -36 -17 -76 -5 -96 31 -12 22 -12 31 -2 57
17 40 56 54 101 36 29 -13 34 -12 46 3 22 29 -16 53 -81 53 -44 0 -58 -5 -83
-28z"/>
</g>
</svg>
