<svg xmlns="http://www.w3.org/2000/svg" xmlns:xlink="http://www.w3.org/1999/xlink" xmlns:inkscape="http://www.inkscape.org/namespaces/inkscape" version="1.1" width="721.778" height="191.111" viewBox="0 0 721.778 191.111">
<defs>
<clipPath id="clip_0">
<path transform="matrix(1,0,0,-1,0,191.111)" d="M0 191.111H721.778V0H0Z"/>
</clipPath>
</defs>
<g inkscape:groupmode="layer" inkscape:label="Laag 1">
<g clip-path="url(#clip_0)">
<path transform="matrix(1,0,0,-1,120.1398,165.64389)" d="M0 0H-33.328C-44.674 0-54.664 5.865-60.465 14.711H-57.417C-41.562 14.711-28.662 27.609-28.662 43.465V46.078H-5.491V43.465C-5.491 27.609 7.409 14.711 23.263 14.711H27.137C21.335 5.865 11.346 0 0 0M-78.563 25.57C-88.431 25.57-96.46 33.597-96.46 43.465V64.613C-96.46 74.482-88.431 82.509-78.563 82.509H-75.843-64.706-57.417C-47.55 82.509-39.521 74.482-39.521 64.613V43.465C-39.521 33.597-47.55 25.57-57.417 25.57H-65.025-76.033ZM-33.328 106.842H0C10.804 106.842 20.365 101.513 26.266 93.368H23.263C7.409 93.368-5.491 80.47-5.491 64.613V62.005H-28.662V64.613C-28.662 80.47-41.562 93.368-57.417 93.368H-59.594C-53.693 101.513-44.132 106.842-33.328 106.842M62.307 43.465C62.307 33.597 54.278 25.57 44.411 25.57H42.705 31.697 23.263C13.396 25.57 5.368 33.597 5.368 43.465V64.613C5.368 74.482 13.396 82.509 23.263 82.509H31.378 42.516 44.411C54.278 82.509 62.307 74.482 62.307 64.613ZM44.411 93.368H38.867C31.817 107.75 17.068 117.7 0 117.7H-11.235V128.474C-5.672 130.655-1.709 136.045-1.709 142.372-1.709 150.618-8.417 157.327-16.664 157.327-24.91 157.327-31.617 150.618-31.617 142.372-31.617 136.045-27.655 130.655-22.093 128.474V117.7H-33.328C-50.396 117.7-65.145 107.75-72.195 93.368H-78.563C-94.419 93.368-107.319 80.47-107.319 64.613V43.465C-107.319 27.609-94.419 14.711-78.563 14.711H-72.793C-66.001-.339-50.884-10.858-33.328-10.858H0C17.556-10.858 32.673-.339 39.465 14.711H44.411C60.266 14.711 73.166 27.609 73.166 43.465V64.613C73.166 80.47 60.266 93.368 44.411 93.368" fill="#f15b28"/>
<path transform="matrix(1,0,0,-1,70.7106,117.41729)" d="M0 0V5.813H-5.812C-10.174 5.813-14.021 8.007-16.345 11.338-17.796 13.419-18.661 15.937-18.661 18.661V24.474H-24.474C-25.412 24.474-26.322 24.36-27.204 24.168-32.979 22.911-37.322 17.772-37.322 11.625V0C-37.322-6.147-32.979-11.286-27.204-12.542-26.322-12.734-25.412-12.849-24.474-12.849H-16.345-12.848C-5.763-12.849 0-7.085 0 0" fill="#f15b28"/>
<path transform="matrix(1,0,0,-1,163.4445,111.09549)" d="M0 0C-5.438 1.495-9.467 6.432-9.467 12.339V18.152H-10.858-15.28C-22.365 18.152-28.128 12.389-28.128 5.304V-6.322C-28.128-13.407-22.365-19.17-15.28-19.17H-10.858-3.654C-2.376-19.17-1.166-18.926 0-18.577 5.297-16.991 9.194-12.129 9.194-6.322V-.509H3.381C2.203-.509 1.084-.298 0 0" fill="#f15b28"/>
<path transform="matrix(1,0,0,-1,536.9567,66.25129)" d="M0 0C-1.647 1.647-3.63 2.471-5.947 2.471-8.191 2.471-10.137 1.647-11.781 0-13.428-1.644-14.25-3.588-14.25-5.833-14.25-8.155-13.428-10.138-11.781-11.781-10.137-13.428-8.191-14.249-5.947-14.249-3.63-14.249-1.647-13.428 0-11.781 1.644-10.138 2.469-8.155 2.469-5.833 2.469-3.588 1.644-1.644 0 0" fill="#f15b28"/>
<path transform="matrix(1,0,0,-1,495.2003,128.57799)" d="M0 0C-3.431-3.181-7.571-4.771-12.428-4.771-17.208-4.771-21.082-3.255-24.048-.226-27.015 2.803-28.499 6.861-28.499 11.947-28.499 16.733-26.92 20.755-23.759 24.011-20.599 27.263-16.553 28.892-11.62 28.892-6.763 28.892-2.757 27.433 .404 24.517 3.564 21.597 5.145 17.447 5.145 12.06 5.145 7.197 3.429 3.178 0 0M-8.844 41.345C-16.553 41.345-22.988 38.991-28.151 34.275V40.111H-42.14V-40.546H-28.151V-12.399C-24.066-15.616-18.325-17.224-10.926-17.224-2.757-17.224 4.278-14.439 10.174-8.865 16.071-3.294 19.019 3.645 19.019 11.947 19.019 21.296 16.302 28.535 10.868 33.661 5.434 38.782-1.138 41.345-8.844 41.345" fill="#1f4456"/>
<path transform="matrix(1,0,0,-1,0,191.111)" d="M524.278 46.542H537.854V102.644H524.278Z" fill="#1f4456"/>
<path transform="matrix(1,0,0,-1,570.0651,71.63459)" d="M0 0H-13.576V-16.832H-21.093V-28.5H-13.576V-53.299C-13.576-59.509-11.649-64.539-7.797-68.389-3.946-72.245 1.646-74.167 8.977-74.167H15.935V-61.825H12.344C8.304-61.825 5.235-60.722 3.143-58.516 1.049-56.311 0-53.112 0-48.923V-28.5H15.935V-16.832H0Z" fill="#1f4456"/>
<path transform="matrix(1,0,0,-1,622.3942,133.5203)" d="M0 0C-4.956 0-9.07 1.567-12.349 4.695-15.628 7.826-17.267 11.926-17.267 16.994-17.267 21.915-15.7 26.014-12.567 29.293-9.437 32.572-5.464 34.213-.656 34.213 5.173 34.213 10.235 31.751 14.535 26.835L22.403 36.672C16.354 43.082 8.705 46.287-.546 46.287-9.437 46.287-16.648 43.512-22.185 37.958-27.723 32.403-30.49 25.341-30.49 16.772-30.49 8.348-27.648 1.416-21.966-4.025-16.284-9.467-9.18-12.186-.656-12.186 4.591-12.186 9.033-11.253 12.678-9.39 16.32-7.53 19.744-4.846 22.95-1.342L15.19 7.826C10.672 2.61 5.61 0 0 0" fill="#1f4456"/>
<path transform="matrix(1,0,0,-1,699.9724,93.461299)" d="M0 0C-4.077 4.153-9.445 6.228-16.101 6.228-23.506 6.228-29.305 3.945-33.493-.615V21.827H-47.069V-51.107H-33.493V-22.495C-33.493-17.486-32.277-13.594-29.847-10.827-27.417-8.059-24.179-6.673-20.141-6.673-16.028-6.673-12.886-8.002-10.716-10.657-8.547-13.315-7.462-17.186-7.462-22.271V-51.107H6.114V-16.549C6.114-9.667 4.077-4.149 0 0" fill="#1f4456"/>
<path transform="matrix(1,0,0,-1,255.5622,92.25859)" d="M0 0H-.002C-2.356 2.351-5.184 4.195-8.411 5.486-13.748 7.617-20.179 8.08-26.121 6.458-28.468 5.818-30.729 4.888-32.835 3.693-34.956 2.499-36.916 1.004-38.658-.739-39.155-1.237-39.634-1.753-40.09-2.291V6.037H-45.956V-52.21H-40.09V-18.267C-40.09-15.574-39.503-12.994-38.342-10.59-37.162-8.147-35.569-5.97-33.609-4.118-31.64-2.259-29.357-.753-26.823 .35-21.749 2.566-15.909 2.453-11.007 .505-8.525-.484-6.323-1.902-4.46-3.708-2.598-5.521-1.098-7.755-.003-10.342 1.092-12.94 1.647-15.927 1.647-19.222V-52.21H7.513V-18.96C7.513-15.114 6.841-11.544 5.521-8.349 4.197-5.154 2.34-2.344 0 0" fill="#1f4456"/>
<path transform="matrix(1,0,0,-1,277.5959,112.455898)" d="M0 0C.308 2.524 1.009 4.988 2.091 7.342 3.417 10.233 5.214 12.81 7.434 15.001 9.65 17.186 12.246 18.953 15.15 20.257 20.844 22.799 27.98 22.834 33.777 20.296 36.667 19.027 39.245 17.288 41.44 15.132 43.632 12.969 45.415 10.406 46.739 7.515 47.828 5.14 48.55 2.619 48.895 0ZM46.016 18.582C43.271 21.35 40.03 23.573 36.379 25.185 29.016 28.422 19.985 28.401 12.592 25.23 8.911 23.654 5.652 21.462 2.906 18.72 .163 15.984-2.032 12.729-3.618 9.045-5.205 5.355-6.01 1.354-6.01-2.845-6.01-6.991-5.188-10.968-3.572-14.662-1.965-18.334 .239-21.586 2.98-24.325 5.721-27.064 8.973-29.27 12.642-30.875 16.341-32.494 20.346-33.317 24.545-33.317 28.078-33.317 31.556-32.699 34.878-31.48 38.194-30.263 41.262-28.507 43.996-26.255L45.381-25.113 41.338-21.073 40.198-21.996C37.906-23.852 35.419-25.315 32.805-26.351 27.284-28.542 20.538-28.344 15.167-25.983 12.272-24.714 9.692-22.958 7.499-20.762 5.302-18.564 3.514-15.962 2.183-13.028 1.089-10.622 .364-8.073 .02-5.433H54.929V-2.76C54.929 1.326 54.121 5.256 52.528 8.918 50.949 12.563 48.757 15.814 46.016 18.582" fill="#1f4456"/>
<path transform="matrix(1,0,0,-1,433.4396,125.21219)" d="M0 0C-1.274-2.955-3.045-5.574-5.261-7.787-7.486-10.014-10.127-11.813-13.11-13.142-19.027-15.782-26.22-15.768-32.075-13.181-35.032-11.88-37.67-10.081-39.918-7.833-42.17-5.581-43.969-2.944-45.27 .014-46.562 2.941-47.216 6.125-47.216 9.477-47.216 12.849-46.611 16.111-45.415 19.179-44.226 22.236-42.525 24.955-40.362 27.252-38.203 29.546-35.582 31.413-32.572 32.794-29.587 34.166-26.236 34.862-22.611 34.862-19.268 34.862-16.067 34.208-13.098 32.915-10.127 31.617-7.494 29.808-5.274 27.535-3.06 25.266-1.289 22.547-.011 19.455 1.262 16.362 1.907 12.947 1.907 9.303 1.907 6.069 1.265 2.938 0 0M1.82 27.973C1.004 29.086 .141 30.119-.762 31.059-2.888 33.275-5.194 35.085-7.617 36.438-10.035 37.782-12.557 38.771-15.109 39.376-22.304 41.094-29.147 40.358-34.91 37.807-38.625 36.163-41.868 33.904-44.549 31.105-47.23 28.302-49.344 25-50.833 21.289-52.323 17.582-53.08 13.608-53.08 9.477-53.08 5.26-52.24 1.28-50.588-2.357-48.95-5.974-46.712-9.169-43.941-11.848-41.177-14.524-37.927-16.662-34.281-18.214-30.619-19.769-26.694-20.561-22.611-20.561-20.059-20.561-17.459-20.236-14.881-19.6-12.281-18.96-9.734-17.903-7.315-16.464-4.908-15.033-2.641-13.198-.578-11.014 .26-10.127 1.06-9.162 1.82-8.119V-19.345H7.598V53.578H1.82Z" fill="#1f4456"/>
<path transform="matrix(1,0,0,-1,360.3649,85.662899)" d="M0 0C-2.241-.555-4.472-1.421-6.635-2.577-8.814-3.747-10.876-5.249-12.764-7.045-13.411-7.663-14.029-8.324-14.614-9.024V-.559H-20.393V-58.806H-14.533L-14.441-24.167C-14.441-21-13.741-18.193-12.363-15.821-10.941-13.382-9.164-11.318-7.075-9.685-4.964-8.035-2.664-6.758-.235-5.896 3.771-4.472 6.993-4.281 10.543-5.08 11.956-5.401 13.341-5.864 14.665-6.455 15.131-6.665 15.546-6.962 15.998-7.2L19.588-2.635C18.83-2.208 18.119-1.73 17.311-1.361 12.525 .82 6.691 1.647 0 0" fill="#1f4456"/>
</g>
</g>
</svg>
