<svg xmlns="http://www.w3.org/2000/svg" xmlns:xlink="http://www.w3.org/1999/xlink" xmlns:inkscape="http://www.inkscape.org/namespaces/inkscape" version="1.1" width="197.345" height="185.841" viewBox="0 0 197.345 185.841">
<defs>
<clipPath id="clip_0">
<path transform="matrix(1,0,0,-1,0,185.841)" d="M0 185.841H197.345V0H0Z"/>
</clipPath>
</defs>
<g inkscape:groupmode="layer" inkscape:label="Laag 1">
<g clip-path="url(#clip_0)">
<path transform="matrix(1,0,0,-1,115.7491,164.8155)" d="M0 0H-33.328C-44.674 0-54.664 5.865-60.465 14.711H-57.417C-41.562 14.711-28.662 27.609-28.662 43.466V46.077H-5.491V43.466C-5.491 27.609 7.409 14.711 23.264 14.711H27.137C21.336 5.865 11.347 0 0 0M-78.563 25.569C-88.431 25.569-96.46 33.597-96.46 43.466V64.613C-96.46 74.481-88.431 82.509-78.563 82.509H-75.843-64.706-57.417C-47.55 82.509-39.521 74.481-39.521 64.613V43.466C-39.521 33.597-47.55 25.569-57.417 25.569H-65.025-76.033ZM-33.328 106.841H0C10.804 106.841 20.365 101.513 26.266 93.368H23.264C7.409 93.368-5.491 80.47-5.491 64.613V62.005H-28.662V64.613C-28.662 80.47-41.562 93.368-57.417 93.368H-59.593C-53.693 101.513-44.132 106.841-33.328 106.841M62.307 43.466C62.307 33.597 54.278 25.569 44.411 25.569H42.705 31.697 23.264C13.396 25.569 5.367 33.597 5.367 43.466V64.613C5.367 74.481 13.396 82.509 23.264 82.509H31.378 42.516 44.411C54.278 82.509 62.307 74.481 62.307 64.613ZM44.411 93.368H38.867C31.817 107.75 17.068 117.7 0 117.7H-11.234V128.474C-5.672 130.655-1.709 136.045-1.709 142.372-1.709 150.618-8.418 157.327-16.664 157.327-24.91 157.327-31.617 150.618-31.617 142.372-31.617 136.045-27.655 130.655-22.093 128.474V117.7H-33.328C-50.396 117.7-65.145 107.75-72.195 93.368H-78.563C-94.419 93.368-107.318 80.47-107.318 64.613V43.466C-107.318 27.609-94.419 14.711-78.563 14.711H-72.792C-66.001-.339-50.884-10.858-33.328-10.858H0C17.557-10.858 32.674-.339 39.465 14.711H44.411C60.266 14.711 73.165 27.609 73.165 43.466V64.613C73.165 80.47 60.266 93.368 44.411 93.368" fill="#f15b28"/>
<path transform="matrix(1,0,0,-1,66.3204,116.589008)" d="M0 0V5.812H-5.813C-10.174 5.812-14.021 8.007-16.346 11.338-17.797 13.419-18.662 15.937-18.662 18.661V24.474H-24.475C-25.413 24.474-26.322 24.359-27.204 24.168-32.979 22.911-37.323 17.772-37.323 11.626V0C-37.323-6.147-32.979-11.286-27.204-12.542-26.322-12.734-25.413-12.849-24.475-12.849H-16.346-12.848C-5.764-12.849 0-7.085 0 0" fill="#f15b28"/>
<path transform="matrix(1,0,0,-1,159.0538,110.2677)" d="M0 0C-5.438 1.495-9.468 6.433-9.468 12.34V18.152H-10.858-15.28C-22.365 18.152-28.129 12.39-28.129 5.305V-6.321C-28.129-13.406-22.365-19.17-15.28-19.17H-10.858-3.654C-2.376-19.17-1.166-18.925 0-18.576 5.298-16.99 9.194-12.129 9.194-6.321V-.509H3.381C2.203-.509 1.084-.298 0 0" fill="#f15b28"/>
</g>
</g>
</svg>
